<svg xmlns:mydata="http://www.w3.org/2000/svg" mydata:contrastcolor="ffffff" mydata:template="Default" mydata:presentation="2.5" mydata:layouttype="undefined" mydata:specialfontid="undefined" mydata:id1="190" mydata:id2="189" mydata:companyname="whatsrent" mydata:companytagline="Rent Make Easy" version="1.1" xmlns="http://www.w3.org/2000/svg" xmlns:xlink="http://www.w3.org/1999/xlink" viewBox="0 0 550 470"><g fill="none" fill-rule="none" stroke="none" stroke-width="1" stroke-linecap="butt" stroke-linejoin="miter" stroke-miterlimit="10" stroke-dasharray="" stroke-dashoffset="0" font-family="none" font-weight="none" font-size="none" text-anchor="none" style="mix-blend-mode: normal"><g data-paper-data="{&quot;isGlobalGroup&quot;:true,&quot;bounds&quot;:{&quot;x&quot;:71.05603495216675,&quot;y&quot;:115,&quot;width&quot;:407.88793009566643,&quot;height&quot;:240}}"><g data-paper-data="{&quot;isSecondaryText&quot;:true}" fill="#53565a" fill-rule="nonzero"><path d="M142.75886,354.85065l-2.73309,-4.36846h-3.27821v4.36846h-1.42628v-10.52163h4.95092c1.18483,0 2.0996,0.26509 2.74429,0.79528c0.64469,0.53019 0.96703,1.26822 0.96703,2.2141c0,0.78159 -0.22776,1.43873 -0.68327,1.97141c-0.45551,0.53268 -1.08402,0.86871 -1.88553,1.00811l2.98698,4.53274zM142.54977,347.35334c0,-0.61233 -0.20784,-1.07905 -0.62353,-1.40015c-0.41569,-0.3211 -1.01433,-0.48165 -1.79592,-0.48165h-3.38275v3.88307h3.44249c0.75172,0 1.33294,-0.17548 1.74365,-0.52645c0.41071,-0.35097 0.61606,-0.84258 0.61606,-1.47482z" data-paper-data="{&quot;glyphName&quot;:&quot;R&quot;,&quot;glyphIndex&quot;:0,&quot;firstGlyphOfWord&quot;:true,&quot;word&quot;:1}"></path><path d="M158.38803,354.85065v-10.52163h7.9827v1.16492h-6.55642v3.37529h6.10837v1.14999h-6.10837v3.66652h6.86258v1.16492z" data-paper-data="{&quot;glyphName&quot;:&quot;E&quot;,&quot;glyphIndex&quot;:1,&quot;word&quot;:1}"></path><path d="M187.23111,354.85065l-5.63045,-8.96094l0.03734,0.72434l0.03734,1.24706v6.98953h-1.26947v-10.52163h1.65777l5.69019,9.02068c-0.05974,-0.97575 -0.08961,-1.68266 -0.08961,-2.12075v-6.89992h1.2844v10.52163z" data-paper-data="{&quot;glyphName&quot;:&quot;N&quot;,&quot;glyphIndex&quot;:2,&quot;word&quot;:1}"></path><path d="M207.29894,345.49394v9.35671h-1.41881v-9.35671h-3.61424v-1.16492h8.6473v1.16492z" data-paper-data="{&quot;glyphName&quot;:&quot;T&quot;,&quot;glyphIndex&quot;:3,&quot;lastGlyphOfWord&quot;:true,&quot;word&quot;:1}"></path><path d="M245.92378,354.85065v-7.0194c0,-0.77661 0.0224,-1.52336 0.06721,-2.24023c-0.24394,0.89112 -0.46298,1.58808 -0.65714,2.09088l-2.71815,7.16875h-1.00064l-2.75549,-7.16875l-0.41818,-1.26947l-0.24643,-0.82142l0.0224,0.82889l0.02987,1.41135v7.0194h-1.26947v-10.52163h1.87433l2.80029,7.29569c0.09957,0.29372 0.1954,0.6086 0.2875,0.94463c0.0921,0.33604 0.15308,0.57873 0.18295,0.72808c0.03983,-0.19913 0.12321,-0.50156 0.25016,-0.90729c0.12695,-0.40573 0.21282,-0.66087 0.25763,-0.76541l2.74802,-7.29569h1.82952v10.52163z" data-paper-data="{&quot;glyphName&quot;:&quot;M&quot;,&quot;glyphIndex&quot;:4,&quot;firstGlyphOfWord&quot;:true,&quot;word&quot;:2}"></path><path d="M269.72427,354.85065l-1.20226,-3.07659h-4.7941l-1.20973,3.07659h-1.47855l4.29378,-10.52163h1.62044l4.22657,10.52163zM266.12496,345.40433l-0.06721,0.20909c-0.12446,0.4132 -0.30865,0.94339 -0.55259,1.59057l-1.34414,3.45743h3.93534l-1.35161,-3.47236c-0.13939,-0.3435 -0.27878,-0.73181 -0.41818,-1.16492z" data-paper-data="{&quot;glyphName&quot;:&quot;A&quot;,&quot;glyphIndex&quot;:5,&quot;word&quot;:2}"></path><path d="M291.5513,354.85065l-4.20417,-5.07786l-1.37401,1.04544v4.03242h-1.42628v-10.52163h1.42628v5.27202l5.0704,-5.27202h1.68018l-4.48047,4.57008l5.07786,5.95155z" data-paper-data="{&quot;glyphName&quot;:&quot;K&quot;,&quot;glyphIndex&quot;:6,&quot;word&quot;:2}"></path><path d="M306.32858,354.85065v-10.52163h7.9827v1.16492h-6.55642v3.37529h6.10837v1.14999h-6.10837v3.66652h6.86258v1.16492z" data-paper-data="{&quot;glyphName&quot;:&quot;E&quot;,&quot;glyphIndex&quot;:7,&quot;lastGlyphOfWord&quot;:true,&quot;word&quot;:2}"></path><path d="M340.44926,354.85065v-10.52163h7.9827v1.16492h-6.55642v3.37529h6.10837v1.14999h-6.10837v3.66652h6.86258v1.16492z" data-paper-data="{&quot;glyphName&quot;:&quot;E&quot;,&quot;glyphIndex&quot;:8,&quot;firstGlyphOfWord&quot;:true,&quot;word&quot;:3}"></path><path d="M369.65522,354.85065l-1.20226,-3.07659h-4.7941l-1.20973,3.07659h-1.47855l4.29378,-10.52163h1.62044l4.22657,10.52163zM366.05591,345.40433l-0.06721,0.20909c-0.12446,0.4132 -0.30865,0.94339 -0.55259,1.59057l-1.34414,3.45743h3.93534l-1.35161,-3.47236c-0.13939,-0.3435 -0.27878,-0.73181 -0.41818,-1.16492z" data-paper-data="{&quot;glyphName&quot;:&quot;A&quot;,&quot;glyphIndex&quot;:9,&quot;word&quot;:3}"></path><path d="M392.37367,351.94581c0,0.97077 -0.3796,1.72249 -1.13879,2.25517c-0.75919,0.53268 -1.82828,0.79902 -3.20727,0.79902c-2.56382,0 -4.04985,-0.89112 -4.45807,-2.67335l1.38148,-0.2763c0.15931,0.63224 0.49783,1.09647 1.01557,1.39268c0.51774,0.29621 1.22217,0.44431 2.11329,0.44431c0.92099,0 1.63164,-0.15806 2.13196,-0.47418c0.50032,-0.31612 0.75048,-0.78035 0.75048,-1.39268c0,-0.3435 -0.07841,-0.62229 -0.23522,-0.83635c-0.15682,-0.21407 -0.37711,-0.3908 -0.66087,-0.53019c-0.28376,-0.13939 -0.62229,-0.25638 -1.01557,-0.35097c-0.39329,-0.09459 -0.82889,-0.19664 -1.3068,-0.30617c-0.83138,-0.1842 -1.46237,-0.36839 -1.893,-0.55259c-0.43062,-0.1842 -0.77039,-0.38955 -1.01931,-0.61606c-0.24891,-0.22651 -0.43933,-0.49161 -0.57126,-0.79528c-0.13192,-0.30368 -0.19789,-0.65216 -0.19789,-1.04544c0,-0.90107 0.34475,-1.59554 1.03424,-2.08342c0.68949,-0.48787 1.67644,-0.73181 2.96084,-0.73181c1.19479,0 2.10831,0.18295 2.74055,0.54886c0.63224,0.3659 1.07531,0.98944 1.32921,1.8706l-1.40388,0.24643c-0.15433,-0.55757 -0.44805,-0.96206 -0.88116,-1.21346c-0.43311,-0.2514 -1.033,-0.37711 -1.79965,-0.37711c-0.84133,0 -1.48353,0.13939 -1.9266,0.41818c-0.44307,0.27878 -0.6646,0.69447 -0.6646,1.24706c0,0.32359 0.08588,0.59117 0.25763,0.80275c0.17175,0.21158 0.41942,0.3908 0.74301,0.53766c0.32359,0.14686 0.96828,0.32732 1.93407,0.54139c0.32359,0.07467 0.64593,0.15059 0.96703,0.22776c0.3211,0.07716 0.62851,0.16926 0.92223,0.2763c0.29372,0.10703 0.56877,0.23274 0.82515,0.37711c0.25638,0.14437 0.47916,0.3211 0.66834,0.53019c0.18918,0.20909 0.33728,0.45551 0.44431,0.73928c0.10703,0.28376 0.16055,0.61731 0.16055,1.00064z" data-paper-data="{&quot;glyphName&quot;:&quot;S&quot;,&quot;glyphIndex&quot;:10,&quot;word&quot;:3}"></path><path d="M410.61643,350.48966v4.36099h-1.41881v-4.36099l-4.04736,-6.16064h1.56816l3.20353,5.01066l3.1886,-5.01066h1.56816z" data-paper-data="{&quot;glyphName&quot;:&quot;Y&quot;,&quot;glyphIndex&quot;:11,&quot;lastGlyphOfWord&quot;:true,&quot;word&quot;:3}"></path></g><g data-paper-data="{&quot;isPrimaryText&quot;:true}" fill="#53565a" fill-rule="nonzero"><path d="M109.80857,328.47488h-8.6667l-4.72954,-20.18103c-0.57778,-2.37715 -1.06477,-4.86161 -1.46096,-7.45336c-0.39619,2.16255 -0.7181,3.80922 -0.96572,4.94002c-0.24762,1.1308 -2.00572,8.69559 -5.27431,22.69437h-8.6667l-8.98861,-34.88966h7.40384l5.05145,22.53342l1.13905,5.44764c0.46222,-2.29461 0.91207,-4.48605 1.34953,-6.57431c0.43746,-2.08826 2.08414,-9.22385 4.94002,-21.40675h8.17146l4.40764,18.5715c0.34667,1.38667 0.9327,4.52319 1.7581,9.40956l0.61905,-2.87239l1.31239,-5.69526l4.20954,-19.41341h7.40384z" data-paper-data="{&quot;glyphName&quot;:&quot;W&quot;,&quot;glyphIndex&quot;:0,&quot;firstGlyphOfWord&quot;:true,&quot;word&quot;:1}"></path><path d="M155.33763,328.47488v-14.95625h-15.20387v14.95625h-7.30479v-34.88966h7.30479v13.89148h15.20387v-13.89148h7.30479v34.88966z" data-paper-data="{&quot;glyphName&quot;:&quot;H&quot;,&quot;glyphIndex&quot;:1,&quot;word&quot;:1}"></path><path d="M204.68004,328.47488l-3.09525,-8.91432h-13.29719l-3.09525,8.91432h-7.30479l12.72767,-34.88966h8.61718l12.67814,34.88966zM194.92382,298.95858l-0.14857,0.54476c-0.16508,0.59429 -0.36318,1.27112 -0.59429,2.03048c-0.23111,0.75937 -1.6508,4.93589 -4.25906,12.52957h10.02861l-3.44192,-10.02861l-1.06477,-3.36763z" data-paper-data="{&quot;glyphName&quot;:&quot;A&quot;,&quot;glyphIndex&quot;:2,&quot;word&quot;:1}"></path><path d="M242.95384,299.23096v29.24392h-7.30479v-29.24392h-11.26671v-5.64574h29.86297v5.64574z" data-paper-data="{&quot;glyphName&quot;:&quot;T&quot;,&quot;glyphIndex&quot;:3,&quot;word&quot;:1}"></path><path d="M297.19913,318.42151c0,3.41716 -1.26699,6.02955 -3.80097,7.83717c-2.53398,1.80763 -6.25241,2.71144 -11.15528,2.71144c-4.47367,0 -7.98162,-0.79238 -10.52385,-2.37715c-2.54223,-1.58477 -4.17652,-3.98668 -4.90288,-7.20574l7.05717,-1.16381c0.47873,1.8489 1.41143,3.19017 2.79811,4.02383c1.38667,0.83365 3.30985,1.25048 5.76955,1.25048c5.10097,0 7.65146,-1.55175 7.65146,-4.65526c0,-0.99048 -0.29302,-1.80763 -0.87905,-2.45144c-0.58603,-0.64381 -1.41143,-1.18032 -2.4762,-1.60953c-1.06477,-0.42921 -3.10763,-0.94921 -6.1286,-1.56001c-2.60826,-0.6108 -4.42414,-1.10191 -5.44764,-1.47334c-1.0235,-0.37143 -1.94794,-0.80889 -2.77334,-1.31239c-0.8254,-0.50349 -1.52699,-1.11016 -2.10477,-1.82001c-0.57778,-0.70984 -1.02762,-1.5435 -1.34953,-2.50096c-0.32191,-0.95746 -0.48286,-2.05525 -0.48286,-3.29335c0,-3.15303 1.18445,-5.56732 3.55335,-7.24289c2.3689,-1.67556 5.81494,-2.51334 10.33814,-2.51334c4.3251,0 7.57305,0.67683 9.74385,2.03048c2.1708,1.35366 3.56986,3.59049 4.19716,6.7105l-7.08193,0.96572c-0.36318,-1.50223 -1.10191,-2.63303 -2.2162,-3.39239c-1.11429,-0.75937 -2.71144,-1.13905 -4.79145,-1.13905c-4.42414,0 -6.63622,1.38667 -6.63622,4.16002c0,0.90794 0.23524,1.6508 0.70572,2.22858c0.47048,0.57778 1.16794,1.06889 2.09239,1.47334c0.92445,0.40445 2.79811,0.91207 5.62097,1.52286c3.35112,0.70984 5.74891,1.36604 7.19336,1.96858c1.44445,0.60254 2.58763,1.30413 3.42954,2.10477c0.84191,0.80064 1.48572,1.7581 1.93144,2.87239c0.44572,1.11429 0.66857,2.39779 0.66857,3.85049z" data-paper-data="{&quot;glyphName&quot;:&quot;S&quot;,&quot;glyphIndex&quot;:4,&quot;word&quot;:1}"></path><path d="M337.10722,328.47488l-8.09717,-13.24767h-8.56765v13.24767h-7.30479v-34.88966h17.43245c4.16002,0 7.37082,0.89556 9.63242,2.68668c2.2616,1.79112 3.39239,4.36224 3.39239,7.71336c0,2.44318 -0.69334,4.55208 -2.08001,6.32669c-1.38667,1.77461 -3.26033,2.94255 -5.62097,3.50382l9.43432,14.6591zM336.24055,304.28241c0,-3.35112 -2.14604,-5.02669 -6.43812,-5.02669h-9.36004v10.30099h9.55813c2.04699,0 3.59874,-0.46222 4.65526,-1.38667c1.05651,-0.92445 1.58477,-2.22033 1.58477,-3.88763z" data-paper-data="{&quot;glyphName&quot;:&quot;R&quot;,&quot;glyphIndex&quot;:5,&quot;word&quot;:1}"></path><path d="M360.32573,328.47488v-34.88966h27.4363v5.64574h-20.13151v8.76575h18.62102v5.64574h-18.62102v9.1867h21.14675v5.64574z" data-paper-data="{&quot;glyphName&quot;:&quot;E&quot;,&quot;glyphIndex&quot;:6,&quot;word&quot;:1}"></path><path d="M425.96154,328.47488l-15.20387,-26.86677c0.29714,2.60826 0.44572,4.70478 0.44572,6.28955v20.57722h-6.48764v-34.88966h8.34479l15.42673,27.08963c-0.29714,-2.49271 -0.44572,-4.76256 -0.44572,-6.80955v-20.28008h6.48764v34.88966z" data-paper-data="{&quot;glyphName&quot;:&quot;N&quot;,&quot;glyphIndex&quot;:7,&quot;word&quot;:1}"></path><path d="M467.65249,299.23096v29.24392h-7.30479v-29.24392h-11.26671v-5.64574h29.86297v5.64574z" data-paper-data="{&quot;glyphName&quot;:&quot;T&quot;,&quot;glyphIndex&quot;:8,&quot;lastGlyphOfWord&quot;:true,&quot;word&quot;:1}"></path></g><g data-paper-data="{&quot;selectedEffects&quot;:{&quot;container&quot;:&quot;&quot;,&quot;transformation&quot;:&quot;&quot;,&quot;pattern&quot;:&quot;&quot;},&quot;initialText&quot;:&quot;W&quot;,&quot;isIcon&quot;:&quot;true&quot;,&quot;iconType&quot;:&quot;initial&quot;,&quot;iconStyle&quot;:&quot;standalone&quot;,&quot;rawInitialId&quot;:21,&quot;disableIconEffects&quot;:&quot;true&quot;,&quot;monogramSpecial&quot;:&quot;law&quot;,&quot;bounds&quot;:{&quot;x&quot;:195.34034101094957,&quot;y&quot;:115,&quot;width&quot;:159.31931797810083,&quot;height&quot;:143.14959615345782},&quot;fillRule&quot;:&quot;evenodd&quot;,&quot;suitableAsStandaloneIcon&quot;:true}" fill="#53565a" fill-rule="evenodd"><path d="M195.34034,115v143.1496h45.37826l-25.16611,-50.33222h8.32265l24.58083,50.33222h0.7466l22.82505,-50.33222h8.32297l22.82467,50.33222h0.70957l22.24003,-50.33222h8.32265l-23.0688,50.33222h43.28096v-143.1496zM295.73085,258.1496l-19.5419,-43.19852l-19.54222,43.19852z" data-paper-data="{&quot;isPathIcon&quot;:true}"></path></g></g></g></svg>